<svg xmlns="http://www.w3.org/2000/svg" viewBox="0 0 420 420" role="img" aria-labelledby="title desc">
<title id="title">Logo LINIA</title><desc id="desc">Logo circulaire terracotta et crème avec feuillage stylisé.</desc>
<defs><linearGradient id="g" x1="0" x2="1" y1="0" y2="1"><stop stop-color="#FFF9F1"/><stop offset="1" stop-color="#E6D3C0"/></linearGradient></defs>
<circle cx="210" cy="210" r="196" fill="url(#g)"/><path d="M16 102c87-38 152-46 241-23 43 11 80 7 139-17v74c-64 26-112 31-163 18-80-20-135-17-217 19z" fill="#B86E4B" opacity=".9"/><path d="M63 333c62-81 150-107 272-92 30 4 53-5 69-21v144H62z" fill="#C9815C" opacity=".64"/><path d="M42 365c70-77 150-101 278-84" fill="none" stroke="#2D2926" stroke-width="5" stroke-linecap="round" opacity=".25"/><text x="210" y="199" text-anchor="middle" font-family="Georgia,serif" font-size="76" fill="#2D2926" letter-spacing="4">LINIA</text><text x="210" y="251" text-anchor="middle" font-family="Georgia,serif" font-size="26" font-style="italic" fill="#2D2926">là où la création commence</text><path d="M272 143c45-52 78-56 104-71-10 38-38 71-104 71z" fill="#7E8C69" opacity=".8"/><path d="M281 145c35-20 65-39 96-72" fill="none" stroke="#59634B" stroke-width="3" opacity=".65"/></svg>
