<svg xmlns="http://www.w3.org/2000/svg" viewBox="0 0 1200 760" role="img" aria-labelledby="title desc">
<title id="title">Ambiance LINIA</title><desc id="desc">Composition graphique douce avec matériel créatif, café et végétaux.</desc>
<rect width="1200" height="760" fill="#FFF9F1"/><filter id="noise"><feTurbulence type="fractalNoise" baseFrequency=".9" numOctaves="2" stitchTiles="stitch"/><feColorMatrix type="saturate" values="0"/><feComponentTransfer><feFuncA type="table" tableValues="0 .08"/></feComponentTransfer></filter><rect width="1200" height="760" filter="url(#noise)" opacity=".55"/><ellipse cx="994" cy="120" rx="250" ry="100" fill="#E6D3C0" transform="rotate(-17 994 120)"/><ellipse cx="219" cy="642" rx="320" ry="130" fill="#F8F1E8" transform="rotate(-12 219 642)"/><circle cx="612" cy="372" r="152" fill="#F8F1E8" stroke="#E6D3C0" stroke-width="2"/><text x="600" y="358" text-anchor="middle" font-family="Georgia,serif" font-size="108" fill="#8F8173" letter-spacing="7">LINIA</text><text x="600" y="424" text-anchor="middle" font-family="Georgia,serif" font-size="36" font-style="italic" fill="#8F8173">Là où la création commence</text><path d="M415 452c129-26 267-21 393 0" fill="none" stroke="#8F8173" stroke-width="6" stroke-linecap="round"/><g fill="none" stroke-linecap="round"><path d="M77 252h195" stroke="#2D2926" stroke-width="18"/><path d="M78 284h162" stroke="#B86E4B" stroke-width="18"/><path d="M80 317h188" stroke="#7E8C69" stroke-width="18"/><path d="M76 350h150" stroke="#C9815C" stroke-width="18"/></g><circle cx="940" cy="280" r="70" fill="#B86E4B" opacity=".22"/><circle cx="940" cy="280" r="45" fill="#C9815C" opacity=".25"/><path d="M1007 580c-45-122-7-224 78-309" stroke="#59634B" stroke-width="10" fill="none"/><path d="M1040 430c67-29 101-12 134-32-21 43-61 67-134 32zm-33 76c67 4 96 29 134 25-36 32-82 39-134-25z" fill="#7E8C69" opacity=".8"/><rect x="134" y="470" width="220" height="150" rx="18" fill="#E6D3C0" stroke="#C9815C"/><text x="244" y="553" text-anchor="middle" font-family="Inter,Arial" font-size="20" fill="#2D2926">Photo ambiance Linia</text></svg>
