<svg xmlns="http://www.w3.org/2000/svg" viewBox="0 0 1200 820" role="img">
  <defs>
    <filter id="paper"><feTurbulence type="fractalNoise" baseFrequency="0.75" numOctaves="2" stitchTiles="stitch"/><feColorMatrix type="saturate" values="0"/><feComponentTransfer><feFuncA type="table" tableValues="0 .08"/></feComponentTransfer></filter>
    <linearGradient id="warm" x1="0" x2="1" y1="0" y2="1"><stop stop-color="#FFF9F1"/><stop offset="1" stop-color="#E6D3C0"/></linearGradient>
    <linearGradient id="terra" x1="0" x2="1"><stop stop-color="#B86E4B"/><stop offset="1" stop-color="#C9815C"/></linearGradient>
  </defs>
  <rect width="1200" height="820" fill="url(#warm)"/>
  <rect width="1200" height="820" filter="url(#paper)" opacity=".75"/>
  
  <rect x="105" y="145" width="990" height="540" rx="42" fill="#FFF9F1" stroke="#E6D3C0" stroke-width="3"/>
  <rect x="155" y="202" width="210" height="330" rx="24" fill="#E6D3C0"/><rect x="405" y="202" width="210" height="330" rx="24" fill="#F8F1E8"/><rect x="655" y="202" width="210" height="330" rx="24" fill="#E6D3C0"/>
  <g stroke="#2D2926" stroke-width="10" stroke-linecap="round" opacity=".5"><path d="M190 280h135M190 350h135M190 420h135M440 280h135M440 350h135M440 420h135M690 280h135M690 350h135M690 420h135"/></g>
  <circle cx="960" cy="500" r="70" fill="#C9815C" opacity=".28"/><path d="M920 557c-12-82 16-151 79-205" stroke="#59634B" stroke-width="8" fill="none"/><path d="M930 190c80-90 142-105 202-134-18 74-78 132-202 134z" fill="#7E8C69" opacity=".55"/><path d="M940 196c72-48 128-91 194-140" fill="none" stroke="#59634B" stroke-width="6" opacity=".45"/>
  <text x="600" y="645" text-anchor="middle" font-family="Georgia,serif" font-size="52" fill="#2D2926">Boutique créative</text>

</svg>