<svg xmlns="http://www.w3.org/2000/svg" viewBox="0 0 1200 820" role="img">
  <defs>
    <filter id="paper"><feTurbulence type="fractalNoise" baseFrequency="0.75" numOctaves="2" stitchTiles="stitch"/><feColorMatrix type="saturate" values="0"/><feComponentTransfer><feFuncA type="table" tableValues="0 .08"/></feComponentTransfer></filter>
    <linearGradient id="warm" x1="0" x2="1" y1="0" y2="1"><stop stop-color="#FFF9F1"/><stop offset="1" stop-color="#E6D3C0"/></linearGradient>
    <linearGradient id="terra" x1="0" x2="1"><stop stop-color="#B86E4B"/><stop offset="1" stop-color="#C9815C"/></linearGradient>
  </defs>
  <rect width="1200" height="820" fill="url(#warm)"/>
  <rect width="1200" height="820" filter="url(#paper)" opacity=".75"/>
  
  <circle cx="600" cy="330" r="145" fill="#E6D3C0"/><circle cx="600" cy="280" r="82" fill="#F8D7C2"/><path d="M515 288c12-105 160-130 188-4 15-88-30-152-104-152-78 0-128 58-84 156z" fill="#8F5F43"/>
  <path d="M438 640c28-150 94-226 162-226s134 76 162 226" fill="#59634B" opacity=".78"/><path d="M520 525c55 36 110 36 160 0" fill="none" stroke="#FFF9F1" stroke-width="10" stroke-linecap="round"/>
  <path d="M445 675c105-92 205-115 310-65" fill="none" stroke="#B86E4B" stroke-width="8" stroke-linecap="round" opacity=".7"/>
  <text x="600" y="745" text-anchor="middle" font-family="Georgia,serif" font-size="50" fill="#2D2926">Jennifer / histoire de Linia</text>

</svg>